<svg width="48" height="48" viewBox="0 0 48 48" fill="none" xmlns="http://www.w3.org/2000/svg">
<path d="M44 46H4C2.9 46 2 45.1 2 44V4C2 2.9 2.9 2 4 2H44C45.1 2 46 2.9 46 4V44C46 45.1 45.1 46 44 46Z" stroke="#5C656D" stroke-width="2" stroke-miterlimit="10"/>
<path d="M6 6.5C6.27614 6.5 6.5 6.27614 6.5 6C6.5 5.72386 6.27614 5.5 6 5.5C5.72386 5.5 5.5 5.72386 5.5 6C5.5 6.27614 5.72386 6.5 6 6.5Z" stroke="#5C656D" stroke-width="2" stroke-miterlimit="10"/>
<path d="M10 6.5C10.2761 6.5 10.5 6.27614 10.5 6C10.5 5.72386 10.2761 5.5 10 5.5C9.72386 5.5 9.5 5.72386 9.5 6C9.5 6.27614 9.72386 6.5 10 6.5Z" stroke="#5C656D" stroke-width="2" stroke-miterlimit="10"/>
<path d="M14 6.5C14.2761 6.5 14.5 6.27614 14.5 6C14.5 5.72386 14.2761 5.5 14 5.5C13.7239 5.5 13.5 5.72386 13.5 6C13.5 6.27614 13.7239 6.5 14 6.5Z" stroke="#5C656D" stroke-width="2" stroke-miterlimit="10"/>
<path d="M2 10H46H2ZM34.2 26.4L32.8 26.1C32.6 25 32.1 24 31.6 23.1L32.4 21.9C32.7 21.5 32.6 21 32.3 20.6L31.8 20.1L31.3 19.6C31 19.3 30.4 19.2 30 19.5L28.8 20.3C27.9 19.7 26.9 19.3 25.8 19.1L25.5 17.7C25.4 17.2 25 16.9 24.5 16.9H23.3C22.8 16.9 22.4 17.2 22.3 17.7L22 19.1C20.9 19.3 19.9 19.8 19 20.3L18 19.6C17.6 19.3 17.1 19.4 16.7 19.7L16.2 20.2L15.7 20.7C15.4 21 15.3 21.6 15.6 22L16.4 23.2C15.8 24.1 15.4 25.1 15.2 26.2L13.8 26.5C13.3 26.6 13 27 13 27.5V28.7C13 29.2 13.3 29.6 13.8 29.7L15.2 30C15.4 31.1 15.9 32.1 16.4 33L15.6 34C15.3 34.4 15.4 34.9 15.7 35.3L16.2 35.8L16.7 36.3C17 36.6 17.6 36.7 18 36.4L19.2 35.6C20.1 36.2 21.1 36.6 22.2 36.8L22.5 38.2C22.6 38.7 23 39 23.5 39H24.7C25.2 39 25.6 38.7 25.7 38.2L26 36.8C27.1 36.6 28.1 36.1 29 35.6L30.2 36.4C30.6 36.7 31.1 36.6 31.5 36.3L32 35.8L32.5 35.3C32.8 35 32.9 34.4 32.6 34L31.8 32.8C32.4 31.9 32.8 30.9 33 29.8L34.4 29.5C34.9 29.4 35.2 29 35.2 28.5V27.3C35 26.9 34.7 26.4 34.2 26.4V26.4Z" stroke="#5C656D" stroke-width="2" stroke-miterlimit="10"/>
<path d="M24 32C26.2091 32 28 30.2091 28 28C28 25.7909 26.2091 24 24 24C21.7909 24 20 25.7909 20 28C20 30.2091 21.7909 32 24 32Z" stroke="#5C656D" stroke-width="2" stroke-miterlimit="10"/>
</svg>
