<svg width="48" height="48" viewBox="0 0 48 48" fill="none" xmlns="http://www.w3.org/2000/svg">
<path d="M14.807 27.535L42.214 2.71199C43.074 1.93299 44.394 1.96599 45.214 2.78599C46.034 3.60599 46.066 4.92599 45.288 5.78599L20.464 33.192" stroke="#5C656D" stroke-width="2" stroke-miterlimit="10" stroke-linecap="round" stroke-linejoin="round"/>
<path d="M11 35C8.87501 40.845 3.19901 44.683 3.19901 44.683M18.343 38.142C14.984 41.501 8.62001 43.976 2.78601 45.213C8.91501 39.085 5.79201 33.723 9.85801 29.657C12.201 27.314 16 27.314 18.343 29.657C20.686 32 20.686 35.799 18.343 38.142Z" stroke="#5C656D" stroke-width="2" stroke-miterlimit="10" stroke-linecap="round" stroke-linejoin="round"/>
<path d="M29.363 22.999L40.97 34.607C41.36 34.997 41.36 35.63 40.97 36.021L35.313 41.678C34.923 42.068 34.289 42.068 33.898 41.678L23 31M17 25L2.20101 9.97999C1.81101 9.58899 1.81101 8.95499 2.20101 8.56499L7.85801 2.90799C8.24801 2.51799 8.88201 2.51799 9.27201 2.90799L22.194 15.83L24.364 18L17 25Z" stroke="#5C656D" stroke-width="2" stroke-miterlimit="10" stroke-linejoin="round"/>
<path d="M5.02899 5.737L21 22M40.97 36.02L44.506 45.213L35.314 41.678L40.97 36.02ZM26.124 26.831L37.435 38.142L26.124 26.831Z" stroke="#5C656D" stroke-width="2" stroke-miterlimit="10" stroke-linejoin="round"/>
</svg>
