<svg width="48" height="48" viewBox="0 0 48 48" fill="none" xmlns="http://www.w3.org/2000/svg">
<path d="M29 45H4" stroke="#5C656D" stroke-width="2" stroke-miterlimit="10"/>
<path d="M44 16V10H25L19.879 4.879C19.316 4.316 18.553 4 17.757 4H2V43C2 44.105 2.895 45 4 45H4.613C6.01 45 7.223 44.036 7.537 42.675L13 19H46L44 27" stroke="#5C656D" stroke-width="2" stroke-miterlimit="10" stroke-linejoin="round"/>
<path d="M39.358 43.499C42.8551 43.499 45.69 40.6641 45.69 37.167C45.69 33.6699 42.8551 30.835 39.358 30.835C35.8609 30.835 33.026 33.6699 33.026 37.167C33.026 40.6641 35.8609 43.499 39.358 43.499Z" stroke="#5C656D" stroke-width="2" stroke-miterlimit="10" stroke-linecap="round" stroke-linejoin="round"/>
<path d="M34.441 42.084L31.974 44.552" stroke="#5C656D" stroke-width="2" stroke-miterlimit="10" stroke-linecap="round" stroke-linejoin="round"/>
</svg>
