<svg width="48" height="48" viewBox="0 0 48 48" fill="none" xmlns="http://www.w3.org/2000/svg">
<path d="M12 33H2V46H46V33H23M6 43V46V43ZM10 43V46V43ZM14 43V46V43ZM18 43V46V43ZM22 43V46V43ZM26 43V46V43ZM30 40V46V40ZM34 43V46V43ZM38 43V46V43ZM42 43V46V43Z" stroke="#5C656D" stroke-width="2" stroke-miterlimit="10" stroke-linecap="round" stroke-linejoin="round"/>
<path d="M20.636 30.192L38.314 12.515M32.657 6.858L41.143 15.343L23.465 33.021L14.98 24.536L32.657 6.858ZM17.808 27.364L35.485 9.686L17.808 27.364Z" stroke="#5C656D" stroke-width="2" stroke-miterlimit="10" stroke-linecap="round" stroke-linejoin="round"/>
<path d="M13.565 30.192L17.808 34.435M32.657 6.858L35.819 3.696C37.197 2.318 39.431 2.318 40.809 3.696L44.304 7.192C45.682 8.569 45.682 10.803 44.304 12.181L41.142 15.343L32.657 6.858ZM14.98 24.536L11.444 36.556L23.464 33.021L14.98 24.536Z" stroke="#5C656D" stroke-width="2" stroke-miterlimit="10" stroke-linecap="round" stroke-linejoin="round"/>
</svg>
